<?xml version="1.0" standalone="no"?>
<!DOCTYPE svg PUBLIC "-//W3C//DTD SVG 20010904//EN"
 "http://www.w3.org/TR/2001/REC-SVG-20010904/DTD/svg10.dtd">
<svg version="1.0" xmlns="http://www.w3.org/2000/svg"
 width="512.000000pt" height="512.000000pt" viewBox="0 0 512.000000 512.000000"
 preserveAspectRatio="xMidYMid meet">
<metadata>
Created by potrace 1.16, written by Peter Selinger 2001-2019
</metadata>
<g transform="translate(0.000000,512.000000) scale(0.100000,-0.100000)"
fill="#000000" stroke="none">
<path d="M2445 5044 c-227 -35 -415 -190 -481 -398 -95 -297 75 -703 355 -850
168 -88 345 -65 500 64 109 91 211 258 257 420 27 98 26 274 -3 365 -55 174
-190 310 -365 369 -73 25 -201 39 -263 30z"/>
<path d="M1795 4020 c-264 -53 -413 -259 -470 -651 -25 -175 -28 -164 73 -263
49 -47 110 -120 137 -161 l49 -75 133 0 c150 0 136 -9 151 94 4 27 13 51 20
54 9 3 12 -16 12 -72 l0 -76 620 0 620 0 0 72 c0 84 12 82 39 -8 l17 -59 81
-3 81 -3 4 134 c3 126 4 136 31 175 15 23 46 54 69 69 38 26 50 28 159 31
l118 4 -4 26 c-49 296 -102 439 -205 553 -81 91 -204 152 -334 165 l-63 6 -56
-84 c-72 -109 -202 -232 -294 -281 -255 -134 -528 -67 -746 182 -30 35 -70 90
-89 122 -32 56 -34 58 -73 58 -22 -1 -58 -5 -80 -9z"/>
<path d="M4251 3334 c-20 -26 -21 -38 -21 -315 l0 -289 -115 0 -115 0 0 179
c0 244 20 225 -243 229 l-205 3 -28 -25 -29 -24 -3 -181 -3 -181 -1003 0
-1002 0 -12 34 c-22 61 -107 179 -170 238 -72 66 -163 120 -265 156 -64 23
-88 26 -217 26 -134 1 -152 -1 -234 -28 -113 -37 -212 -102 -302 -199 -123
-132 -184 -291 -184 -482 0 -340 213 -613 542 -697 117 -29 290 -23 403 16
172 59 329 194 402 346 l38 79 1737 0 1737 1 28 24 28 24 3 204 c4 264 12 252
-157 256 l-120 4 -3 295 -3 295 -24 19 c-21 17 -41 19 -231 19 l-209 0 -20
-26z m-3314 -610 c212 -101 206 -409 -10 -505 -169 -75 -364 36 -392 223 -14
92 42 209 125 264 87 58 181 64 277 18z"/>
<path d="M1559 2049 c-7 -17 -32 -58 -56 -90 -39 -53 -41 -59 -22 -59 12 0 48
14 81 32 55 29 99 73 127 126 12 22 11 22 -52 22 -63 0 -65 -1 -78 -31z"/>
<path d="M1902 1183 l3 -898 24 -52 c93 -206 372 -213 485 -13 l31 55 3 655
c1 456 5 662 13 676 25 47 94 50 118 5 8 -13 11 -225 11 -650 0 -416 4 -647
11 -681 15 -68 64 -138 123 -175 41 -25 62 -31 126 -33 97 -5 163 21 219 84
74 84 71 40 71 1035 l0 889 -620 0 -621 0 3 -897z"/>
<path d="M3430 2075 c0 -3 6 -20 14 -38 19 -46 97 -112 150 -127 60 -16 171
-9 221 15 51 25 109 83 123 123 l11 32 -260 0 c-142 0 -259 -2 -259 -5z"/>
</g>
</svg>
