<?xml version="1.0" standalone="no"?>
<!DOCTYPE svg PUBLIC "-//W3C//DTD SVG 20010904//EN"
 "http://www.w3.org/TR/2001/REC-SVG-20010904/DTD/svg10.dtd">
<svg version="1.0" xmlns="http://www.w3.org/2000/svg"
 width="512.000000pt" height="512.000000pt" viewBox="0 0 512.000000 512.000000"
 preserveAspectRatio="xMidYMid meet">
<metadata>
Created by potrace 1.16, written by Peter Selinger 2001-2019
</metadata>
<g transform="translate(0.000000,512.000000) scale(0.100000,-0.100000)"
fill="#000000" stroke="none">
<path d="M1471 5110 c-200 -42 -341 -217 -341 -422 0 -135 61 -260 164 -338
46 -35 154 -87 160 -78 1 2 26 153 55 337 55 348 65 391 107 454 14 22 23 41
21 44 -10 10 -123 12 -166 3z"/>
<path d="M3800 5098 c-11 -12 -20 -35 -20 -52 0 -17 37 -141 83 -276 l82 -245
3 145 c2 80 0 205 -3 278 -6 117 -10 136 -28 153 -29 27 -90 26 -117 -3z"/>
<path d="M1891 5088 c-55 -15 -117 -66 -145 -118 -22 -41 -36 -110 -92 -457
-69 -430 -71 -461 -34 -533 22 -42 73 -92 117 -114 24 -12 251 -56 291 -56 34
0 42 30 87 308 25 156 45 292 45 301 0 15 -19 21 -120 36 -107 15 -120 19
-120 37 0 21 41 271 45 276 1 1 56 -6 121 -17 65 -11 121 -17 123 -15 3 2 15
68 28 145 16 101 20 147 12 160 -5 10 -13 19 -17 19 -4 0 -59 9 -122 20 -126
22 -167 23 -219 8z"/>
<path d="M4167 4986 c-32 -29 -33 -39 -52 -311 -18 -258 -18 -262 -6 -249 10
11 206 440 215 471 9 28 -17 88 -42 102 -36 19 -87 13 -115 -13z"/>
<path d="M3034 4790 c-39 -19 -64 -53 -64 -85 0 -25 -18 -26 -98 -5 -102 26
-161 28 -193 6 -63 -41 -66 -151 -5 -191 14 -10 66 -27 117 -40 50 -13 92 -25
94 -27 2 -2 -31 -120 -73 -262 l-77 -258 -377 -214 -378 -215 -220 122 c-121
68 -218 125 -216 127 3 2 21 -1 40 -8 54 -18 65 -7 23 22 -97 66 -176 212
-177 325 0 31 -1 31 -57 37 -316 32 -376 29 -460 -19 -56 -34 -118 -107 -138
-163 -22 -67 -129 -1535 -121 -1681 3 -56 29 -257 57 -446 l53 -343 -159 -577
c-87 -318 -160 -600 -163 -626 -7 -72 14 -132 65 -189 57 -63 109 -84 201 -78
87 4 153 42 194 108 42 70 368 1268 368 1353 -1 34 -25 217 -54 407 -30 190
-53 346 -51 348 1 2 24 -1 50 -5 l47 -8 143 -390 142 -390 41 -621 c39 -609
41 -622 66 -672 43 -85 123 -132 226 -132 71 0 112 15 164 60 45 40 74 95 82
152 5 41 -69 1246 -81 1316 -4 18 -58 173 -121 345 l-114 311 25 311 c14 170
27 326 30 346 5 35 3 37 -231 250 -130 118 -255 231 -277 252 l-42 39 35 -20
c140 -79 477 -265 521 -288 72 -36 145 -37 214 -2 28 14 146 80 264 147 117
67 214 121 215 119 1 -2 9 -20 19 -41 31 -69 129 -86 183 -32 14 14 36 64 56
130 l33 107 59 41 c75 53 101 100 101 182 0 43 -7 73 -24 106 l-23 47 76 253
c42 139 78 255 81 257 2 2 174 -37 382 -87 208 -50 388 -91 401 -91 67 0 118
64 109 134 -11 76 -28 84 -363 165 -164 40 -335 82 -379 93 l-80 19 3 54 c4
64 -22 111 -66 121 -15 3 -34 8 -42 10 -8 2 -34 -5 -56 -16z"/>
<path d="M4548 4677 c-36 -16 -422 -321 -411 -324 10 -4 471 140 501 156 28
15 42 42 42 81 0 44 -16 69 -55 86 -41 17 -42 17 -77 1z"/>
<path d="M4095 4207 c11 -8 115 -64 231 -125 214 -113 250 -125 296 -101 55
30 54 135 -2 164 -16 8 -134 28 -274 45 -283 35 -277 34 -251 17z"/>
<path d="M4005 4058 c7 -40 29 -180 50 -312 33 -206 41 -242 62 -267 53 -62
163 -23 163 57 0 23 -44 124 -137 314 -75 154 -139 280 -143 280 -4 0 -2 -33
5 -72z"/>
</g>
</svg>
